<?xml version="1.0" encoding="UTF-8"?>
<svg width="1200pt" height="1200pt" version="1.1" viewBox="0 0 1200 1200" xmlns="http://www.w3.org/2000/svg" fill="#ffffff">
 <path d="m600 118.56c-311.04 0-564 195.96-564 436.92 0 109.92 51.961 213.72 147 294.24l-35.281 252 307.44-124.08c47.66 9.7812 96.188 14.727 144.84 14.758 311.04 0 564-195.96 564-436.92 0-240.96-252.96-436.92-564-436.92zm0 801.84c-47.223-0.054688-94.301-5.2461-140.4-15.477l-10.922-2.3984-212.4 86.16 24-169.68-16.68-12.723c-87.602-68.402-135.6-157.44-135.6-250.8 0-201.24 220.68-364.92 492-364.92s492 163.68 492 364.92c0 201.24-220.68 364.92-492 364.92z"/>
</svg>
